<svg width="30" height="29" viewBox="0 0 30 29" fill="none" xmlns="http://www.w3.org/2000/svg">
<path d="M24.3115 2.35925H5.43739C4.13979 2.35925 3.08992 3.42092 3.08992 4.71851L3.08129 20.2554C3.08012 22.3565 5.6204 23.4096 7.1061 21.9239C7.54825 21.4817 8.14793 21.2333 8.77323 21.2333H24.3115C25.6091 21.2333 26.6707 20.1717 26.6707 18.8741V4.71851C26.6707 3.42092 25.6091 2.35925 24.3115 2.35925ZM24.3115 11.7963C24.3115 15.7052 21.1426 18.8741 17.2337 18.8741H7.80182C7.17161 18.8741 6.5672 19.1244 6.12157 19.5701C5.86909 19.8225 5.43739 19.6437 5.43739 19.2867V9.26882C5.43739 6.75576 7.47463 4.71851 9.9877 4.71851H17.2337C21.1426 4.71851 24.3115 7.88734 24.3115 11.7963ZM7.79665 15.3352C7.79665 14.6837 8.32479 14.1556 8.97628 14.1556C9.62777 14.1556 10.1559 14.6837 10.1559 15.3352C10.1559 15.9867 9.62777 16.5148 8.97628 16.5148C8.32479 16.5148 7.79665 15.9867 7.79665 15.3352ZM7.79665 11.7963C7.79665 11.1448 8.32479 10.6167 8.97628 10.6167C9.62777 10.6167 10.1559 11.1448 10.1559 11.7963C10.1559 12.4478 9.62777 12.9759 8.97628 12.9759C8.32479 12.9759 7.79665 12.4478 7.79665 11.7963ZM7.79665 8.25741C7.79665 7.60591 8.32479 7.07778 8.97628 7.07778C9.62777 7.07778 10.1559 7.60591 10.1559 8.25741C10.1559 8.9089 9.62777 9.43704 8.97628 9.43704C8.32479 9.43704 7.79665 8.9089 7.79665 8.25741ZM12.5152 15.3352C12.5152 14.6837 13.0433 14.1556 13.6948 14.1556H17.2337C17.8852 14.1556 18.4133 14.6837 18.4133 15.3352C18.4133 15.9867 17.8852 16.5148 17.2337 16.5148H13.6948C13.0433 16.5148 12.5152 15.9867 12.5152 15.3352ZM12.5152 11.7963C12.5152 11.1448 13.0433 10.6167 13.6948 10.6167H20.7726C21.4241 10.6167 21.9522 11.1448 21.9522 11.7963C21.9522 12.4478 21.4241 12.9759 20.7726 12.9759H13.6948C13.0433 12.9759 12.5152 12.4478 12.5152 11.7963ZM12.5152 8.25741C12.5152 7.60591 13.0433 7.07778 13.6948 7.07778H20.7726C21.4241 7.07778 21.9522 7.60591 21.9522 8.25741C21.9522 8.9089 21.4241 9.43704 20.7726 9.43704H13.6948C13.0433 9.43704 12.5152 8.9089 12.5152 8.25741Z" fill="black"/>
</svg>