<svg width="22" height="18" viewBox="0 0 22 18" fill="none" xmlns="http://www.w3.org/2000/svg">
<path fill-rule="evenodd" clip-rule="evenodd" d="M1.1 0C0.492487 0 0 0.503679 0 1.125V5.625C1.82254 5.625 3.3 7.13604 3.3 9C3.3 10.864 1.82254 12.375 0 12.375V16.875C0 17.4963 0.492487 18 1.1 18H20.9C21.5075 18 22 17.4963 22 16.875V12.375C20.1775 12.375 18.7 10.864 18.7 9C18.7 7.13604 20.1775 5.625 22 5.625V1.125C22 0.503679 21.5075 0 20.9 0H1.1ZM12.6996 6.8931L11 3.375L9.30039 6.8931L5.5 7.45729L8.25 10.1957L7.60084 14.0625L11 12.2368L14.3992 14.0625L13.75 10.1957L16.5 7.45729L12.6996 6.8931Z" fill="black"/>
</svg>
