<svg width="25" height="24" viewBox="0 0 25 24" fill="none" xmlns="http://www.w3.org/2000/svg">
<path d="M20.7188 3C20.1665 3 19.7188 2.55228 19.7188 2C19.7188 1.44772 19.271 1 18.7188 1C18.1665 1 17.7188 1.44772 17.7188 2C17.7188 2.55228 17.271 3 16.7188 3H8.71875C8.16647 3 7.71875 2.55228 7.71875 2C7.71875 1.44772 7.27104 1 6.71875 1C6.16647 1 5.71875 1.44772 5.71875 2C5.71875 2.55228 5.27103 3 4.71875 3C3.61875 3 2.71875 3.9 2.71875 5V21C2.71875 22.1 3.61875 23 4.71875 23H20.7188C21.8188 23 22.7188 22.1 22.7188 21V5C22.7188 3.9 21.8188 3 20.7188 3ZM20.7188 14.5C20.7188 18.0899 17.8086 21 14.2188 21H11.2188C7.6289 21 4.71875 18.0899 4.71875 14.5C4.71875 10.9102 7.6289 8 11.2188 8H14.2188C17.8086 8 20.7188 10.9102 20.7188 14.5Z" fill="black"/>
</svg>
