<svg width="28" height="19" viewBox="0 0 28 19" fill="none" xmlns="http://www.w3.org/2000/svg">
<path d="M18.8596 7.98134C20.9467 7.98134 22.6189 6.29655 22.6189 4.20942C22.6189 2.12229 20.9467 0.4375 18.8596 0.4375C16.7725 0.4375 15.0877 2.12229 15.0877 4.20942C15.0877 6.29655 16.7725 7.98134 18.8596 7.98134ZM8.80114 7.98134C10.8883 7.98134 12.5605 6.29655 12.5605 4.20942C12.5605 2.12229 10.8883 0.4375 8.80114 0.4375C6.71401 0.4375 5.02922 2.12229 5.02922 4.20942C5.02922 6.29655 6.71401 7.98134 8.80114 7.98134ZM8.80114 10.4959C5.87162 10.4959 0 11.967 0 14.8965V16.7825C0 17.474 0.565788 18.0398 1.25731 18.0398H16.345C17.0365 18.0398 17.6023 17.474 17.6023 16.7825V14.8965C17.6023 11.967 11.7307 10.4959 8.80114 10.4959ZM18.8596 10.4959C18.5144 10.4959 18.124 10.5185 17.71 10.5529C17.6901 10.5546 17.6757 10.5939 17.6895 10.6083C17.6902 10.609 17.6907 10.6094 17.6915 10.61C19.1242 11.6535 20.1169 13.0488 20.1169 14.8965V16.7825C20.1169 17.4086 20.5481 18.0398 21.1743 18.0398H26.4034C27.0949 18.0398 27.6607 17.474 27.6607 16.7825V14.8965C27.6607 11.967 21.7891 10.4959 18.8596 10.4959Z" fill="black"/>
</svg>
