<svg width="19" height="20" viewBox="0 0 19 20" fill="none" xmlns="http://www.w3.org/2000/svg">
<path d="M14.9333 2.6375C11.6148 0.148611 7.05185 0.148611 3.73333 2.6375C1.38315 4.40014 0 7.16643 0 10.1042V16.5208C0 18.1317 1.30584 19.4375 2.91667 19.4375C4.5275 19.4375 5.83333 18.1317 5.83333 16.5208V14.7708C5.83333 12.8378 7.40034 11.2708 9.33333 11.2708C11.2663 11.2708 12.8333 12.8378 12.8333 14.7708V16.5208C12.8333 18.1317 14.1392 19.4375 15.75 19.4375C17.3608 19.4375 18.6667 18.1317 18.6667 16.5208V10.1042C18.6667 7.16643 17.2835 4.40014 14.9333 2.6375Z" fill="black"/>
</svg>
