<svg width="25" height="24" viewBox="0 0 25 24" fill="none" xmlns="http://www.w3.org/2000/svg">
<mask id="mask0_29_774" style="mask-type:alpha" maskUnits="userSpaceOnUse" x="0" y="0" width="25" height="24">
<rect x="0.71875" width="24" height="24" rx="10" fill="#D9D9D9"/>
</mask>
<g mask="url(#mask0_29_774)">
<path d="M6.26875 16.45C5.93738 16.7813 5.39698 16.7836 5.09306 16.4269C4.41884 15.6355 3.88157 14.764 3.48125 13.8125C2.97292 12.6041 2.71875 11.3333 2.71875 9.99995C2.71875 8.66662 2.97292 7.39578 3.48125 6.18745C3.88157 5.23588 4.41884 4.36441 5.09306 3.57305C5.39698 3.21633 5.93738 3.21858 6.26875 3.54995C6.60012 3.88132 6.59617 4.41594 6.29875 4.77809C5.78587 5.40256 5.37171 6.08902 5.05625 6.83745C4.63125 7.84579 4.41875 8.89995 4.41875 9.99995C4.41875 11.1 4.63125 12.1541 5.05625 13.1625C5.37171 13.9109 5.78587 14.5973 6.29875 15.2218C6.59617 15.584 6.60012 16.1186 6.26875 16.45ZM8.56875 14.15C8.23738 14.4813 7.69478 14.4845 7.40733 14.1144C7.04171 13.6437 6.74552 13.1305 6.51875 12.575C6.18542 11.7583 6.01875 10.9 6.01875 9.99995C6.01875 9.09995 6.18542 8.24162 6.51875 7.42495C6.74552 6.86937 7.04171 6.35621 7.40733 5.88547C7.69478 5.51537 8.23738 5.51858 8.56875 5.84995C8.90012 6.18132 8.89213 6.71444 8.62059 7.09638C8.40054 7.40591 8.22076 7.73627 8.08125 8.08745C7.83958 8.69579 7.71875 9.33329 7.71875 9.99995C7.71875 10.6666 7.83958 11.3041 8.08125 11.9125C8.22076 12.2636 8.40054 12.594 8.62059 12.9035C8.89213 13.2855 8.90012 13.8186 8.56875 14.15ZM12.7188 21C12.1665 21 11.7188 20.5522 11.7188 20V13.7477C11.7188 12.8673 11.1162 12.1097 10.6312 11.375C10.3562 10.9583 10.2188 10.5 10.2188 9.99995C10.2188 9.29995 10.4604 8.70829 10.9438 8.22495C11.4271 7.74162 12.0188 7.49995 12.7188 7.49995C13.4187 7.49995 14.0104 7.74162 14.4938 8.22495C14.9771 8.70829 15.2188 9.29995 15.2188 9.99995C15.2188 10.5 15.0813 10.9583 14.8063 11.375C14.3213 12.1097 13.7188 12.8673 13.7188 13.7477V20C13.7188 20.5522 13.271 21 12.7188 21ZM18.0302 14.1144C17.7427 14.4845 17.2001 14.4813 16.8687 14.15C16.5374 13.8186 16.5454 13.2855 16.8169 12.9035C17.037 12.594 17.2167 12.2636 17.3562 11.9125C17.5979 11.3041 17.7188 10.6666 17.7188 9.99995C17.7188 9.33329 17.5979 8.69579 17.3562 8.08745C17.2167 7.73627 17.037 7.40591 16.8169 7.09638C16.5454 6.71444 16.5374 6.18132 16.8687 5.84995C17.2001 5.51858 17.7427 5.51537 18.0302 5.88547C18.3958 6.35621 18.692 6.86937 18.9188 7.42495C19.2521 8.24162 19.4188 9.09995 19.4188 9.99995C19.4188 10.9 19.2521 11.7583 18.9188 12.575C18.692 13.1305 18.3958 13.6437 18.0302 14.1144ZM20.3444 16.4269C20.0405 16.7836 19.5001 16.7813 19.1688 16.45C18.8374 16.1186 18.8413 15.584 19.1388 15.2218C19.6516 14.5973 20.0658 13.9109 20.3813 13.1625C20.8062 12.1541 21.0188 11.1 21.0188 9.99995C21.0188 8.89995 20.8062 7.84579 20.3813 6.83745C20.0658 6.08902 19.6516 5.40256 19.1388 4.77809C18.8413 4.41594 18.8374 3.88132 19.1688 3.54995C19.5001 3.21858 20.0405 3.21633 20.3444 3.57305C21.0187 4.36441 21.5559 5.23588 21.9563 6.18745C22.4646 7.39578 22.7188 8.66662 22.7188 9.99995C22.7188 11.3333 22.4646 12.6041 21.9563 13.8125C21.5559 14.764 21.0187 15.6355 20.3444 16.4269Z" fill="#1C1B1F"/>
</g>
</svg>
