<svg width="36" height="35" viewBox="0 0 36 35" fill="none" xmlns="http://www.w3.org/2000/svg">
<path d="M9.59897 14C8.01485 14 6.71875 15.2961 6.71875 16.8802C6.71875 18.4643 8.01485 19.7604 9.59897 19.7604C11.1831 19.7604 12.4792 18.4643 12.4792 16.8802C12.4792 15.2961 11.1831 14 9.59897 14ZM26.8803 14C25.2962 14 24.0001 15.2961 24.0001 16.8802C24.0001 18.4643 25.2962 19.7604 26.8803 19.7604C28.4644 19.7604 29.7605 18.4643 29.7605 16.8802C29.7605 15.2961 28.4644 14 26.8803 14ZM18.2396 14C16.6555 14 15.3594 15.2961 15.3594 16.8802C15.3594 18.4643 16.6555 19.7604 18.2396 19.7604C19.8238 19.7604 21.1199 18.4643 21.1199 16.8802C21.1199 15.2961 19.8238 14 18.2396 14Z" fill="black"/>
</svg>
